<svg width="72" height="72" viewBox="0 0 72 72" fill="none" xmlns="http://www.w3.org/2000/svg">
<rect width="72" height="72" rx="20" fill="#009BF4" fill-opacity="0.15"/>
<rect x="19.6216" y="19.6216" width="31.7568" height="31.7568" rx="2" fill="white"/>
<rect x="20.8918" y="48.8378" width="29.2162" height="2.54054" rx="1" fill="#DCF7FB"/>
<rect x="25.973" y="25.973" width="19.0541" height="19.0541" rx="1" fill="#DCF7FB"/>
<path d="M34.3682 38.6953V35.2842C34.3682 35.0335 34.3249 34.8171 34.2383 34.6348C34.1517 34.4525 34.0195 34.3112 33.8418 34.2109C33.6641 34.1107 33.4385 34.0605 33.165 34.0605C32.9235 34.0605 32.7116 34.1016 32.5293 34.1836C32.3516 34.2656 32.2148 34.3818 32.1191 34.5322C32.0234 34.6781 31.9756 34.8467 31.9756 35.0381H30.1641C30.1641 34.7327 30.237 34.4434 30.3828 34.1699C30.5286 33.8919 30.736 33.6458 31.0049 33.4316C31.2783 33.2129 31.6042 33.042 31.9824 32.9189C32.3652 32.7959 32.7936 32.7344 33.2676 32.7344C33.8281 32.7344 34.3271 32.8301 34.7646 33.0215C35.2067 33.2083 35.5531 33.4909 35.8037 33.8691C36.0589 34.2474 36.1865 34.7236 36.1865 35.2979V38.5244C36.1865 38.8936 36.2093 39.2103 36.2549 39.4746C36.305 39.7344 36.3779 39.96 36.4736 40.1514V40.2676H34.6348C34.5482 40.0807 34.4821 39.8438 34.4365 39.5566C34.391 39.265 34.3682 38.9779 34.3682 38.6953ZM34.6211 35.7627L34.6348 36.8359H33.4932C33.2106 36.8359 32.9622 36.8656 32.748 36.9248C32.5339 36.9795 32.3584 37.0615 32.2217 37.1709C32.085 37.2757 31.9824 37.4033 31.9141 37.5537C31.8457 37.6995 31.8115 37.8659 31.8115 38.0527C31.8115 38.235 31.8525 38.3991 31.9346 38.5449C32.0212 38.6908 32.1442 38.807 32.3037 38.8936C32.4678 38.9756 32.6592 39.0166 32.8779 39.0166C33.1969 39.0166 33.4749 38.9528 33.7119 38.8252C33.9489 38.693 34.1335 38.5335 34.2656 38.3467C34.3978 38.1598 34.4684 37.9821 34.4775 37.8135L34.9971 38.5928C34.9333 38.7796 34.8376 38.9779 34.71 39.1875C34.5824 39.3971 34.4183 39.5931 34.2178 39.7754C34.0173 39.9577 33.7757 40.1081 33.4932 40.2266C33.2106 40.3451 32.8825 40.4043 32.5088 40.4043C32.0303 40.4043 31.6019 40.3086 31.2236 40.1172C30.8454 39.9258 30.5469 39.6637 30.3281 39.3311C30.1094 38.9984 30 38.6201 30 38.1963C30 37.8044 30.0729 37.458 30.2188 37.1572C30.3646 36.8564 30.5811 36.6035 30.8682 36.3984C31.1553 36.1888 31.5107 36.0316 31.9346 35.9268C32.363 35.8174 32.8529 35.7627 33.4043 35.7627H34.6211Z" fill="#009BF4"/>
<path d="M39.7275 32.8711V40.2676H37.916V32.8711H39.7275ZM37.793 30.9365C37.793 30.6676 37.8841 30.4443 38.0664 30.2666C38.2533 30.0889 38.5039 30 38.8184 30C39.1328 30 39.3812 30.0889 39.5635 30.2666C39.7503 30.4443 39.8438 30.6676 39.8438 30.9365C39.8438 31.2008 39.7503 31.4219 39.5635 31.5996C39.3812 31.7773 39.1328 31.8662 38.8184 31.8662C38.5039 31.8662 38.2533 31.7773 38.0664 31.5996C37.8841 31.4219 37.793 31.2008 37.793 30.9365Z" fill="#009BF4"/>
<path d="M46.5635 19.6013C49.2344 19.6013 51.3986 21.7659 51.3986 24.4365V46.5635C51.3986 49.2344 49.2341 51.3986 46.5635 51.3986H24.4365C21.7656 51.3986 19.6013 49.2341 19.6013 46.5635V24.4365C19.6013 21.7656 21.7658 19.6013 24.4365 19.6013H46.5635Z" stroke="#009BF4" stroke-width="2.5"/>
<path d="M42.3195 25.9527C43.8249 25.9527 45.0474 27.1752 45.0474 28.6806V42.3194C45.0474 43.8248 43.8249 45.0473 42.3195 45.0473H28.6806C27.1752 45.0473 25.9528 43.8248 25.9528 42.3194V28.6806C25.9528 27.1752 27.1752 25.9527 28.6806 25.9527H42.3195Z" stroke="#009BF4" stroke-width="2.5"/>
<path fill-rule="evenodd" clip-rule="evenodd" d="M36.3636 18.3514V13.2703C36.3636 12.5691 35.9157 12 35.3636 12C34.8116 12 34.3636 12.5691 34.3636 13.2703V18.3514C34.3636 19.0526 34.8116 19.6216 35.3636 19.6216C35.9157 19.6216 36.3636 19.0526 36.3636 18.3514Z" fill="#009BF4"/>
<path fill-rule="evenodd" clip-rule="evenodd" d="M18.3514 33.6123H13.2703C12.5691 33.6123 12 34.0603 12 34.6123C12 35.1643 12.5691 35.6123 13.2703 35.6123H18.3514C19.0526 35.6123 19.6216 35.1643 19.6216 34.6123C19.6216 34.0603 19.0526 33.6123 18.3514 33.6123Z" fill="#009BF4"/>
<path fill-rule="evenodd" clip-rule="evenodd" d="M36.3636 57.7297V52.6487C36.3636 51.9475 35.9157 51.3784 35.3636 51.3784C34.8116 51.3784 34.3636 51.9475 34.3636 52.6487V57.7297C34.3636 58.4309 34.8116 59 35.3636 59C35.9157 59 36.3636 58.4309 36.3636 57.7297Z" fill="#009BF4"/>
<path fill-rule="evenodd" clip-rule="evenodd" d="M57.7298 33.5946H52.6487C51.9475 33.5946 51.3784 34.0426 51.3784 34.5946C51.3784 35.1466 51.9475 35.5946 52.6487 35.5946H57.7298C58.431 35.5946 59 35.1466 59 34.5946C59 34.0426 58.431 33.5946 57.7298 33.5946Z" fill="#009BF4"/>
<path fill-rule="evenodd" clip-rule="evenodd" d="M46.0247 18.3514V13.2703C46.0247 12.5691 45.5767 12 45.0247 12C44.4726 12 44.0247 12.5691 44.0247 13.2703V18.3514C44.0247 19.0526 44.4726 19.6216 45.0247 19.6216C45.5767 19.6216 46.0247 19.0526 46.0247 18.3514Z" fill="#009BF4"/>
<path fill-rule="evenodd" clip-rule="evenodd" d="M18.3514 23.9514H13.2703C12.5691 23.9514 12 24.3994 12 24.9514C12 25.5034 12.5691 25.9514 13.2703 25.9514H18.3514C19.0526 25.9514 19.6216 25.5034 19.6216 24.9514C19.6216 24.3994 19.0526 23.9514 18.3514 23.9514Z" fill="#009BF4"/>
<path fill-rule="evenodd" clip-rule="evenodd" d="M46.0247 57.7297V52.6487C46.0247 51.9475 45.5767 51.3784 45.0247 51.3784C44.4726 51.3784 44.0247 51.9475 44.0247 52.6487V57.7297C44.0247 58.4309 44.4726 59 45.0247 59C45.5767 59 46.0247 58.4309 46.0247 57.7297Z" fill="#009BF4"/>
<path fill-rule="evenodd" clip-rule="evenodd" d="M57.7298 23.4324H52.6487C51.9475 23.4324 51.3784 23.8804 51.3784 24.4324C51.3784 24.9844 51.9475 25.4324 52.6487 25.4324H57.7298C58.431 25.4324 59 24.9844 59 24.4324C59 23.8804 58.431 23.4324 57.7298 23.4324Z" fill="#009BF4"/>
<path fill-rule="evenodd" clip-rule="evenodd" d="M26.7028 18.3514V13.2703C26.7028 12.5691 26.2548 12 25.7028 12C25.1507 12 24.7028 12.5691 24.7028 13.2703V18.3514C24.7028 19.0526 25.1507 19.6216 25.7028 19.6216C26.2548 19.6216 26.7028 19.0526 26.7028 18.3514Z" fill="#009BF4"/>
<path fill-rule="evenodd" clip-rule="evenodd" d="M18.3514 43.2733H13.2703C12.5691 43.2733 12 43.7213 12 44.2733C12 44.8253 12.5691 45.2733 13.2703 45.2733H18.3514C19.0526 45.2733 19.6216 44.8253 19.6216 44.2733C19.6216 43.7213 19.0526 43.2733 18.3514 43.2733Z" fill="#009BF4"/>
<path fill-rule="evenodd" clip-rule="evenodd" d="M26.7028 57.7297V52.6487C26.7028 51.9475 26.2548 51.3784 25.7028 51.3784C25.1507 51.3784 24.7028 51.9475 24.7028 52.6487V57.7297C24.7028 58.4309 25.1507 59 25.7028 59C26.2548 59 26.7028 58.4309 26.7028 57.7297Z" fill="#009BF4"/>
<path fill-rule="evenodd" clip-rule="evenodd" d="M57.7298 43.7567H52.6487C51.9475 43.7567 51.3784 44.2047 51.3784 44.7567C51.3784 45.3088 51.9475 45.7567 52.6487 45.7567H57.7298C58.431 45.7567 59 45.3088 59 44.7567C59 44.2047 58.431 43.7567 57.7298 43.7567Z" fill="#009BF4"/>
</svg>
