<svg width="72" height="72" viewBox="0 0 72 72" fill="none" xmlns="http://www.w3.org/2000/svg">
<path d="M0 20C0 8.95431 8.95431 0 20 0H52C63.0457 0 72 8.95431 72 20V52C72 63.0457 63.0457 72 52 72H20C8.95431 72 0 63.0457 0 52V20Z" fill="#8A61FF" fill-opacity="0.15"/>
<path d="M37.6587 13.0883C42.5561 13.5162 47.1811 15.5276 50.8328 18.818C54.4851 22.108 56.9668 26.4983 57.9021 31.3246C58.8374 36.1507 58.1755 41.1505 56.0167 45.5671C55.7369 46.1002 55.6611 46.7169 55.8025 47.3019L57.5641 53.7654C57.8566 54.8386 57.5638 55.9863 56.7925 56.7883C56.0216 57.5902 54.886 57.9278 53.8021 57.6777L46.7061 56.0396C46.1708 55.9334 45.6152 56.0057 45.1251 56.2463C42.154 57.6113 38.9219 58.3156 35.6524 58.3103C34.3586 58.31 33.0673 58.2031 31.7912 57.9903C26.0305 56.9918 20.8787 53.8056 17.4122 49.097C13.9459 44.3887 12.4337 38.5232 13.1912 32.7256C13.9487 26.9281 16.9177 21.6479 21.4774 17.989C26.0371 14.3292 31.8349 12.5728 37.6587 13.0883Z" fill="white"/>
<path d="M37.3755 15.5367C41.7575 15.9197 45.8957 17.7196 49.163 20.664C52.431 23.6082 54.6514 27.5369 55.4883 31.8558C56.3252 36.1746 55.733 40.6487 53.8013 44.601C53.551 45.078 53.4831 45.6299 53.6097 46.1534L55.1859 51.9373C55.4476 52.8978 55.1856 53.9248 54.4955 54.6424C53.8058 55.3601 52.7896 55.6622 51.8199 55.4384L45.4706 53.9725L45.4703 53.9721C44.9914 53.8771 44.4946 53.9421 44.0561 54.1575C41.3977 55.379 38.5058 56.0092 35.5803 56.0045C34.4227 56.0042 33.2673 55.9085 32.1255 55.7181C26.9711 54.8246 22.3616 51.9734 19.2599 47.7597C16.1584 43.5464 14.8054 38.2976 15.4832 33.1095C16.1609 27.9216 18.8174 23.1964 22.8972 19.9222C26.977 16.6472 32.1649 15.0762 37.3758 15.5375L37.3755 15.5367ZM18.3939 38.7252C19.0057 42.248 20.6848 45.4974 23.204 48.0346C25.7231 50.5717 28.961 52.2725 32.479 52.9083C35.9969 53.5439 39.6254 53.0829 42.8725 51.588C43.5524 51.2688 44.294 51.1005 45.0453 51.0955C45.403 51.0955 45.7594 51.1359 46.1079 51.2161L52.4571 52.682L50.8809 46.8989V46.8992C50.5728 45.7109 50.7082 44.4512 51.2619 43.3556C52.8681 40.0462 53.3868 36.3138 52.7437 32.6916C52.1007 29.0695 50.3291 25.7439 47.6821 23.1899C45.0351 20.6359 41.6485 18.9839 38.0062 18.4708C34.364 17.9578 30.6528 18.6097 27.4034 20.3333C24.1541 22.0568 21.5327 24.7637 19.9146 28.0674C18.2961 31.3708 17.7639 35.1013 18.3933 38.7257L18.3939 38.7252Z" fill="#CCCCFF"/>
<path d="M37.6587 13.0882C42.5561 13.5162 47.1811 15.5276 50.8328 18.8179C54.4851 22.1079 56.9668 26.4983 57.9021 31.3245C58.8374 36.1507 58.1755 41.1504 56.0167 45.5671C55.7369 46.1002 55.6611 46.7169 55.8025 47.3019L57.5641 53.7653C57.8566 54.8386 57.5638 55.9863 56.7925 56.7883C56.0216 57.5902 54.886 57.9278 53.8021 57.6777L46.7061 56.0396L46.7057 56.0392C46.1705 55.933 45.6152 56.0057 45.1251 56.2463C42.154 57.6113 38.9219 58.3155 35.6523 58.3103C34.3586 58.31 33.0673 58.203 31.7912 57.9903C26.0305 56.9918 20.8787 53.8056 17.4122 49.0969C13.9459 44.3887 12.4337 38.5232 13.1912 32.7256C13.9487 26.9281 16.9177 21.6478 21.4774 17.989C26.0371 14.3292 31.8352 12.5737 37.6591 13.0891L37.6587 13.0882ZM16.4444 39.001C17.1281 42.9377 19.0048 46.5688 21.8202 49.4041C24.6357 52.2393 28.2544 54.1399 32.1862 54.8504C36.1179 55.5607 40.1732 55.0455 43.8023 53.375C44.5622 53.0183 45.391 52.8302 46.2307 52.8246C46.6304 52.8246 47.0288 52.8697 47.4182 52.9594L54.5143 54.5975L52.7527 48.135V48.1354C52.4084 46.8074 52.5597 45.3997 53.1785 44.1754C54.9737 40.4772 55.5533 36.3063 54.8347 32.2586C54.116 28.2109 52.136 24.4946 49.1776 21.6406C46.2193 18.7865 42.4344 16.9404 38.3636 16.3671C34.2929 15.7937 30.1453 16.5223 26.5137 18.4483C22.8821 20.3743 19.9524 23.3993 18.1439 27.0911C16.3351 30.7826 15.7402 34.9514 16.4437 39.0016L16.4444 39.001Z" fill="#8A61FF"/>
<path fill-rule="evenodd" clip-rule="evenodd" d="M26.5154 26.1796C26.5154 25.0079 27.4652 24.058 28.637 24.058H30.0514C31.2231 24.058 32.173 25.0079 32.173 26.1796V27.594C32.173 28.7658 31.2231 29.7156 30.0514 29.7156H28.637C27.4652 29.7156 26.5154 28.7658 26.5154 27.594V26.1796ZM28.637 25.4724C28.2464 25.4724 27.9298 25.7891 27.9298 26.1796V27.594C27.9298 27.9846 28.2464 28.3012 28.637 28.3012H30.0514C30.4419 28.3012 30.7586 27.9846 30.7586 27.594V26.1796C30.7586 25.7891 30.4419 25.4724 30.0514 25.4724H28.637Z" fill="#8A61FF"/>
<rect x="33.7156" y="26.1153" width="13.1608" height="1.54298" rx="0.771488" fill="#8A61FF"/>
<path fill-rule="evenodd" clip-rule="evenodd" d="M21.6006 34.4091C21.6006 33.2373 22.5505 32.2875 23.7222 32.2875H25.1366C26.3083 32.2875 27.2582 33.2373 27.2582 34.4091V35.8235C27.2582 36.9952 26.3083 37.9451 25.1366 37.9451H23.7222C22.5505 37.9451 21.6006 36.9952 21.6006 35.8235V34.4091ZM23.7222 33.7019C23.3316 33.7019 23.015 34.0185 23.015 34.4091V35.8235C23.015 36.214 23.3316 36.5307 23.7222 36.5307H25.1366C25.5271 36.5307 25.8438 36.214 25.8438 35.8235V34.4091C25.8438 34.0185 25.5271 33.7019 25.1366 33.7019H23.7222Z" fill="#8A61FF"/>
<rect x="28.801" y="34.3445" width="18.43" height="1.54298" rx="0.771488" fill="#8A61FF"/>
<path fill-rule="evenodd" clip-rule="evenodd" d="M26.5154 42.6379C26.5154 41.4662 27.4652 40.5164 28.637 40.5164H30.0514C31.2231 40.5164 32.173 41.4662 32.173 42.6379V44.0523C32.173 45.2241 31.2231 46.1739 30.0514 46.1739H28.637C27.4652 46.1739 26.5154 45.2241 26.5154 44.0523V42.6379ZM28.637 41.9308C28.2464 41.9308 27.9298 42.2474 27.9298 42.6379V44.0523C27.9298 44.4429 28.2464 44.7595 28.637 44.7595H30.0514C30.4419 44.7595 30.7586 44.4429 30.7586 44.0523V42.6379C30.7586 42.2474 30.4419 41.9308 30.0514 41.9308H28.637Z" fill="#8A61FF"/>
<rect x="33.7156" y="42.5739" width="13.1608" height="1.54298" rx="0.771488" fill="#8A61FF"/>
<path d="M58.643 26.5337L56.5048 28.7934L47.177 39.054L47.7989 41.2304H50.2863L61.1304 29.332V28.3993L58.643 26.5337Z" fill="white"/>
<path fill-rule="evenodd" clip-rule="evenodd" d="M60.7256 28.8044L58.9667 27.0455L47.8794 39.1641L48.0992 40.7031L49.6382 40.9229L60.7256 28.8044ZM59.8461 26.1661C59.3604 25.6804 58.573 25.6804 58.0873 26.1661L46.9999 38.2846C46.7231 38.5615 46.5928 38.9524 46.6481 39.34L46.868 40.879C46.9462 41.4262 47.3761 41.8561 47.9233 41.9343L49.4623 42.1542C49.8499 42.2095 50.2408 42.0792 50.5177 41.8024L61.605 29.6839C62.0907 29.1982 62.0907 28.4107 61.605 27.925L59.8461 26.1661Z" fill="#8A61FF"/>
<path d="M57.7749 27.9249L60.4137 30.5636L59.9739 31.0034L57.3351 28.3647L57.7749 27.9249Z" fill="#8A61FF"/>
</svg>
