<svg width="72" height="72" viewBox="0 0 72 72" fill="none" xmlns="http://www.w3.org/2000/svg">
<g clip-path="url(#clip0_1163_458)">
<rect width="72" height="72" rx="20" fill="white"/>
<path opacity="0.15" d="M0 20C0 8.95431 8.95431 0 20 0H52C63.0457 0 72 8.95431 72 20V52C72 63.0457 63.0457 72 52 72H20C8.95431 72 0 63.0457 0 52V20Z" fill="#8A61FF"/>
<path d="M38.487 14.0876C43.3504 14.5126 47.9432 16.51 51.5694 19.7775C55.1964 23.0446 57.6607 27.4044 58.5896 32.1971C59.5183 36.9896 58.8611 41.9546 56.7173 46.3405C56.4394 46.8699 56.3641 47.4823 56.5046 48.0632L58.2539 54.4817C58.5444 55.5475 58.2536 56.6872 57.4877 57.4836C56.7222 58.28 55.5944 58.6152 54.5181 58.3669L47.4714 56.7401C46.9399 56.6347 46.3881 56.7065 45.9014 56.9454C42.951 58.3009 39.7414 59.0003 36.4946 58.9951C35.2099 58.9947 33.9276 58.8885 32.6603 58.6773C26.9397 57.6857 21.8238 54.5217 18.3814 49.8458C14.9392 45.1703 13.4375 39.3456 14.1898 33.5883C14.942 27.8312 17.8903 22.5877 22.4183 18.9543C26.9462 15.32 32.7037 13.5758 38.487 14.0876Z" fill="white"/>
<path d="M38.2058 16.5192C42.5573 16.8995 46.6667 18.6869 49.9113 21.6109C53.1565 24.5345 55.3615 28.4359 56.1926 32.7247C57.0236 37.0134 56.4355 41.4564 54.5173 45.3812C54.2687 45.855 54.2013 46.403 54.327 46.9228L55.8923 52.6665C56.1521 53.6203 55.8919 54.6402 55.2067 55.3528C54.5217 56.0655 53.5126 56.3655 52.5496 56.1432L46.2446 54.6875L46.2443 54.6872C45.7687 54.5928 45.2753 54.6574 44.8398 54.8712C42.2 56.0842 39.3282 56.71 36.4231 56.7054C35.2735 56.7051 34.1262 56.6101 32.9923 56.421C27.8738 55.5337 23.2963 52.7023 20.2162 48.518C17.1362 44.334 15.7927 39.1218 16.4657 33.9697C17.1388 28.8179 19.7768 24.1256 23.8282 20.8742C27.8796 17.622 33.0315 16.0619 38.2061 16.52L38.2058 16.5192ZM19.3563 39.5464C19.9638 43.0447 21.6312 46.2714 24.1328 48.7909C26.6344 51.3104 29.8498 52.9994 33.3433 53.6308C36.8368 54.2619 40.44 53.8042 43.6645 52.3196C44.3397 52.0027 45.0761 51.8356 45.8222 51.8305C46.1774 51.8305 46.5313 51.8707 46.8774 51.9503L53.1824 53.406L51.6172 47.6632V47.6635C51.3112 46.4834 51.4457 45.2325 51.9956 44.1445C53.5906 40.8582 54.1056 37.1517 53.467 33.5547C52.8285 29.9578 51.0692 26.6553 48.4406 24.1191C45.8121 21.583 42.4491 19.9424 38.8321 19.4329C35.2152 18.9234 31.5299 19.5708 28.3031 21.2824C25.0763 22.9939 22.4732 25.682 20.8663 28.9627C19.2591 32.2431 18.7306 35.9477 19.3557 39.5469L19.3563 39.5464Z" fill="#CCCCFF"/>
<path d="M38.487 14.0875C43.3504 14.5125 47.9432 16.5099 51.5694 19.7773C55.1964 23.0444 57.6607 27.4042 58.5896 32.1969C59.5183 36.9895 58.8611 41.9544 56.7173 46.3403C56.4394 46.8697 56.3641 47.4821 56.5046 48.063L58.2539 54.4815C58.5444 55.5473 58.2536 56.6871 57.4877 57.4834C56.7222 58.2798 55.5944 58.6151 54.5181 58.3667L47.4714 56.7399L47.471 56.7396C46.9396 56.6341 46.3881 56.7063 45.9014 56.9453C42.951 58.3008 39.7414 59.0001 36.4946 58.9949C35.2099 58.9945 33.9276 58.8884 32.6603 58.6771C26.9397 57.6856 21.8238 54.5215 18.3814 49.8456C14.9392 45.1701 13.4375 39.3455 14.1898 33.5882C14.942 27.8311 17.8903 22.5875 22.4183 18.9541C26.9462 15.3198 32.7041 13.5765 38.4874 14.0883L38.487 14.0875ZM17.4203 39.8199C18.0993 43.7292 19.9629 47.3351 22.7587 50.1506C25.5546 52.9661 29.1482 54.8535 33.0526 55.5591C36.957 56.2644 40.984 55.7528 44.5878 54.0939C45.3425 53.7397 46.1655 53.5529 46.9994 53.5473C47.3963 53.5473 47.7919 53.5922 48.1786 53.6812L55.2253 55.3079L53.476 48.8904V48.8907C53.134 47.572 53.2843 46.1741 53.8989 44.9583C55.6815 41.2859 56.2571 37.1439 55.5434 33.1244C54.8298 29.1049 52.8636 25.4145 49.9258 22.5803C46.988 19.7461 43.2294 17.9128 39.187 17.3435C35.1446 16.7741 31.0258 17.4976 27.4195 19.4102C23.8132 21.3228 20.9039 24.3268 19.108 27.9929C17.3117 31.6587 16.721 35.7985 17.4196 39.8205L17.4203 39.8199Z" fill="#8A61FF"/>
<path d="M40.8623 45.3941H39.2927V32.3135C39.2927 31.8972 39.1273 31.4982 38.8326 31.2039C38.5383 30.9096 38.1393 30.7442 37.7231 30.7439H35.6304C35.0695 30.7439 34.5513 31.0431 34.271 31.5287C33.9907 32.0143 33.9907 32.6127 34.271 33.0983C34.5513 33.5839 35.0695 33.8831 35.6304 33.8831H36.1535V45.3932L34.5839 45.3935C34.0229 45.3935 33.5048 45.6927 33.2245 46.1783C32.9442 46.6639 32.9442 47.2623 33.2245 47.7479C33.5048 48.2335 34.023 48.5327 34.5839 48.5327H40.8623C41.4232 48.5327 41.9413 48.2335 42.2216 47.7479C42.5019 47.2623 42.5019 46.6639 42.2216 46.1783C41.9413 45.6927 41.4232 45.3935 40.8623 45.3935L40.8623 45.3941Z" fill="#CCCCFF"/>
<path d="M39.8156 26.0351C39.8156 27.1909 38.8788 28.1281 37.7229 28.1281C36.5671 28.1281 35.6302 27.1909 35.6302 26.0351C35.6302 24.8792 36.5671 23.9424 37.7229 23.9424C38.8788 23.9424 39.8156 24.8792 39.8156 26.0351Z" fill="#CCCCFF"/>
<path d="M39.6422 45.3941H38.0726V32.3135C38.0726 31.8972 37.9072 31.4982 37.6125 31.2039C37.3182 30.9096 36.9192 30.7442 36.503 30.7439H34.4103C33.8494 30.7439 33.3312 31.0431 33.0509 31.5287C32.7706 32.0143 32.7706 32.6127 33.0509 33.0983C33.3312 33.5839 33.8494 33.8831 34.4103 33.8831H34.9334V45.3932L33.3638 45.3935C32.8028 45.3935 32.2847 45.6927 32.0044 46.1783C31.7241 46.6639 31.7241 47.2623 32.0044 47.7479C32.2847 48.2335 32.8029 48.5327 33.3638 48.5327H39.6422C40.2031 48.5327 40.7212 48.2335 41.0015 47.7479C41.2818 47.2623 41.2818 46.6639 41.0015 46.1783C40.7212 45.6927 40.2031 45.3935 39.6422 45.3935L39.6422 45.3941Z" fill="#8A61FF"/>
<path d="M38.5955 26.0351C38.5955 27.1909 37.6587 28.1281 36.5028 28.1281C35.347 28.1281 34.4102 27.1909 34.4102 26.0351C34.4102 24.8792 35.347 23.9424 36.5028 23.9424C37.6587 23.9424 38.5955 24.8792 38.5955 26.0351Z" fill="#8A61FF"/>
</g>
<defs>
<clipPath id="clip0_1163_458">
<rect width="72" height="72" rx="20" fill="white"/>
</clipPath>
</defs>
</svg>
