<svg width="72" height="72" viewBox="0 0 72 72" fill="none" xmlns="http://www.w3.org/2000/svg">
<rect width="72" height="72" rx="20" fill="#800080" fill-opacity="0.15"/>
<g filter="url(#filter0_i_1163_398)">
<path d="M22 21H50C50.5523 21 51 21.4477 51 22V54C51 54.5523 50.5523 55 50 55H22C21.4477 55 21 54.5523 21 54V22C21 21.4477 21.4477 21 22 21Z" fill="white"/>
</g>
<g filter="url(#filter1_i_1163_398)">
<path fill-rule="evenodd" clip-rule="evenodd" d="M20 22C20 20.8954 20.8954 20 22 20H50C51.1046 20 52 20.8954 52 22V54C52 55.1046 51.1046 56 50 56H22C20.8954 56 20 55.1046 20 54V22ZM50 22H22V54H50V22Z" fill="#800080"/>
</g>
<g filter="url(#filter2_i_1163_398)">
<path fill-rule="evenodd" clip-rule="evenodd" d="M45.786 18.5917L18.9126 26.4543L26.2136 51.4082L53.087 43.5456L45.786 18.5917Z" fill="white"/>
</g>
<g filter="url(#filter3_i_1163_398)">
<path fill-rule="evenodd" clip-rule="evenodd" d="M16.9933 27.016C16.6831 25.9558 17.291 24.845 18.3512 24.5348L45.2246 16.6722C46.2847 16.362 47.3955 16.97 47.7057 18.0301L55.0067 42.984C55.3169 44.0441 54.7089 45.155 53.6488 45.4651L26.7754 53.3277C25.7153 53.6379 24.6044 53.03 24.2942 51.9698L16.9933 27.016ZM45.7862 18.5917L18.9128 26.4543L26.2138 51.4082L53.0872 43.5456L45.7862 18.5917Z" fill="#800080"/>
</g>
<rect x="22" y="28.5938" width="14" height="2" rx="1" transform="rotate(-18.3 22 28.5938)" fill="#800080"/>
<rect x="23.256" y="32.3914" width="20" height="2" rx="1" transform="rotate(-18.3 23.256 32.3914)" fill="#800080"/>
<rect x="24.512" y="36.1891" width="21" height="2" rx="1" transform="rotate(-18.3 24.512 36.1891)" fill="#800080"/>
<rect x="25.7679" y="39.9868" width="19" height="2" rx="1" transform="rotate(-18.3 25.7679 39.9868)" fill="#800080"/>
<rect x="27.0239" y="43.7845" width="14" height="2" rx="1" transform="rotate(-18.3 27.0239 43.7845)" fill="#800080"/>
<defs>
<filter id="filter0_i_1163_398" x="21" y="21" width="30" height="34" filterUnits="userSpaceOnUse" color-interpolation-filters="sRGB">
<feFlood flood-opacity="0" result="BackgroundImageFix"/>
<feBlend mode="normal" in="SourceGraphic" in2="BackgroundImageFix" result="shape"/>
<feColorMatrix in="SourceAlpha" type="matrix" values="0 0 0 0 0 0 0 0 0 0 0 0 0 0 0 0 0 0 127 0" result="hardAlpha"/>
<feOffset dy="-8"/>
<feComposite in2="hardAlpha" operator="arithmetic" k2="-1" k3="1"/>
<feColorMatrix type="matrix" values="0 0 0 0 0.592157 0 0 0 0 0.466667 0 0 0 0 0.94902 0 0 0 0.4 0"/>
<feBlend mode="normal" in2="shape" result="effect1_innerShadow_1163_398"/>
</filter>
<filter id="filter1_i_1163_398" x="20" y="20" width="32" height="36" filterUnits="userSpaceOnUse" color-interpolation-filters="sRGB">
<feFlood flood-opacity="0" result="BackgroundImageFix"/>
<feBlend mode="normal" in="SourceGraphic" in2="BackgroundImageFix" result="shape"/>
<feColorMatrix in="SourceAlpha" type="matrix" values="0 0 0 0 0 0 0 0 0 0 0 0 0 0 0 0 0 0 127 0" result="hardAlpha"/>
<feOffset dy="-8"/>
<feComposite in2="hardAlpha" operator="arithmetic" k2="-1" k3="1"/>
<feColorMatrix type="matrix" values="0 0 0 0 0.592157 0 0 0 0 0.466667 0 0 0 0 0.94902 0 0 0 0.4 0"/>
<feBlend mode="normal" in2="shape" result="effect1_innerShadow_1163_398"/>
</filter>
<filter id="filter2_i_1163_398" x="18.9126" y="18.5917" width="34.1743" height="32.8165" filterUnits="userSpaceOnUse" color-interpolation-filters="sRGB">
<feFlood flood-opacity="0" result="BackgroundImageFix"/>
<feBlend mode="normal" in="SourceGraphic" in2="BackgroundImageFix" result="shape"/>
<feColorMatrix in="SourceAlpha" type="matrix" values="0 0 0 0 0 0 0 0 0 0 0 0 0 0 0 0 0 0 127 0" result="hardAlpha"/>
<feOffset dy="-3"/>
<feComposite in2="hardAlpha" operator="arithmetic" k2="-1" k3="1"/>
<feColorMatrix type="matrix" values="0 0 0 0 0.592157 0 0 0 0 0.466667 0 0 0 0 0.94902 0 0 0 0.2 0"/>
<feBlend mode="normal" in2="shape" result="effect1_innerShadow_1163_398"/>
</filter>
<filter id="filter3_i_1163_398" x="16.9122" y="16.5912" width="38.1754" height="36.8175" filterUnits="userSpaceOnUse" color-interpolation-filters="sRGB">
<feFlood flood-opacity="0" result="BackgroundImageFix"/>
<feBlend mode="normal" in="SourceGraphic" in2="BackgroundImageFix" result="shape"/>
<feColorMatrix in="SourceAlpha" type="matrix" values="0 0 0 0 0 0 0 0 0 0 0 0 0 0 0 0 0 0 127 0" result="hardAlpha"/>
<feOffset dy="-6"/>
<feComposite in2="hardAlpha" operator="arithmetic" k2="-1" k3="1"/>
<feColorMatrix type="matrix" values="0 0 0 0 0.592157 0 0 0 0 0.466667 0 0 0 0 0.94902 0 0 0 0.2 0"/>
<feBlend mode="normal" in2="shape" result="effect1_innerShadow_1163_398"/>
</filter>
</defs>
</svg>
