<svg width="72" height="72" viewBox="0 0 72 72" fill="none" xmlns="http://www.w3.org/2000/svg">
<path d="M0 20C0 8.95431 8.95431 0 20 0H52C63.0457 0 72 8.95431 72 20V52C72 63.0457 63.0457 72 52 72H20C8.95431 72 0 63.0457 0 52V20Z" fill="#40CE53" fill-opacity="0.15"/>
<path fill-rule="evenodd" clip-rule="evenodd" d="M27 18C25.8954 18 25 18.8954 25 20V52C25 53.1046 25.8954 54 27 54H45C46.1046 54 47 53.1046 47 52V20C47 18.8954 46.1046 18 45 18H27ZM41 27C41 26.4477 40.5523 26 40 26H32C31.4477 26 31 26.4477 31 27C31 27.5523 31.4477 28 32 28H40C40.5523 28 41 27.5523 41 27ZM39 41C39 42.6569 37.6569 44 36 44C34.3431 44 33 42.6569 33 41C33 39.3431 34.3431 38 36 38C37.6569 38 39 39.3431 39 41ZM41 32C41 31.4477 40.5523 31 40 31H32C31.4477 31 31 31.4477 31 32C31 32.5523 31.4477 33 32 33H40C40.5523 33 41 32.5523 41 32Z" fill="white"/>
<path fill-rule="evenodd" clip-rule="evenodd" d="M23 20C23 17.7909 24.7909 16 27 16H45C47.2091 16 49 17.7909 49 20V52C49 54.2091 47.2091 56 45 56H27C24.7909 56 23 54.2091 23 52V20ZM36 42C36.5523 42 37 41.5523 37 41C37 40.4477 36.5523 40 36 40C35.4477 40 35 40.4477 35 41C35 41.5523 35.4477 42 36 42ZM32 31H40C40.5523 31 41 31.4477 41 32C41 32.5523 40.5523 33 40 33H32C31.4477 33 31 32.5523 31 32C31 31.4477 31.4477 31 32 31ZM32 26H40C40.5523 26 41 26.4477 41 27C41 27.5523 40.5523 28 40 28H32C31.4477 28 31 27.5523 31 27C31 26.4477 31.4477 26 32 26ZM25 20C25 18.8954 25.8954 18 27 18H45C46.1046 18 47 18.8954 47 20V52C47 53.1046 46.1046 54 45 54H27C25.8954 54 25 53.1046 25 52V20ZM36 44C37.6569 44 39 42.6569 39 41C39 39.3431 37.6569 38 36 38C34.3431 38 33 39.3431 33 41C33 42.6569 34.3431 44 36 44Z" fill="#40CE53"/>
<path fill-rule="evenodd" clip-rule="evenodd" d="M58 32.25C58.4142 32.25 58.75 32.5858 58.75 33V39.1893L61.4697 36.4697C61.7626 36.1768 62.2374 36.1768 62.5303 36.4697C62.8232 36.7626 62.8232 37.2374 62.5303 37.5303L58.5303 41.5303C58.2374 41.8232 57.7626 41.8232 57.4697 41.5303L53.4697 37.5303C53.1768 37.2374 53.1768 36.7626 53.4697 36.4697C53.7626 36.1768 54.2374 36.1768 54.5303 36.4697L57.25 39.1893V33C57.25 32.5858 57.5858 32.25 58 32.25Z" fill="#40CE53"/>
<path fill-rule="evenodd" clip-rule="evenodd" d="M14 41.75C14.4142 41.75 14.75 41.4142 14.75 41V34.8107L17.4697 37.5303C17.7626 37.8232 18.2374 37.8232 18.5303 37.5303C18.8232 37.2374 18.8232 36.7626 18.5303 36.4697L14.5303 32.4697C14.2374 32.1768 13.7626 32.1768 13.4697 32.4697L9.46967 36.4697C9.17678 36.7626 9.17678 37.2374 9.46967 37.5303C9.76256 37.8232 10.2374 37.8232 10.5303 37.5303L13.25 34.8107V41C13.25 41.4142 13.5858 41.75 14 41.75Z" fill="#40CE53"/>
<path opacity="0.2" fill-rule="evenodd" clip-rule="evenodd" d="M47 48H25V52C25 53.1046 25.8954 54 27 54H45C46.1046 54 47 53.1046 47 52V48Z" fill="#40CE53"/>
</svg>
