<svg width="72" height="72" viewBox="0 0 72 72" fill="none" xmlns="http://www.w3.org/2000/svg">
<path d="M0 20C0 8.95431 8.95431 0 20 0H52C63.0457 0 72 8.95431 72 20V52C72 63.0457 63.0457 72 52 72H20C8.95431 72 0 63.0457 0 52V20Z" fill="#FFF3DE"/>
<path d="M13 45C13 42.7909 14.7909 41 17 41H27C29.2091 41 31 42.7909 31 45V51C31 53.2091 29.2091 55 27 55H17C14.7909 55 13 53.2091 13 51V45Z" fill="white"/>
<path fill-rule="evenodd" clip-rule="evenodd" d="M27 43H17C15.8954 43 15 43.8954 15 45V51C15 52.1046 15.8954 53 17 53H27C28.1046 53 29 52.1046 29 51V45C29 43.8954 28.1046 43 27 43ZM17 41C14.7909 41 13 42.7909 13 45V51C13 53.2091 14.7909 55 17 55H27C29.2091 55 31 53.2091 31 51V45C31 42.7909 29.2091 41 27 41H17Z" fill="#FFA500"/>
<path opacity="0.25" fill-rule="evenodd" clip-rule="evenodd" d="M17 41C14.7909 41 13 42.7909 13 45V51C13 53.2091 14.7909 55 17 55H23C20.7909 55 19 53.2091 19 51V45C19 42.7909 20.7909 41 23 41H17Z" fill="#FFA500"/>
<path d="M39 45C39 42.7909 40.7909 41 43 41H53C55.2091 41 57 42.7909 57 45V51C57 53.2091 55.2091 55 53 55H43C40.7909 55 39 53.2091 39 51V45Z" fill="white"/>
<path fill-rule="evenodd" clip-rule="evenodd" d="M53 43H43C41.8954 43 41 43.8954 41 45V51C41 52.1046 41.8954 53 43 53H53C54.1046 53 55 52.1046 55 51V45C55 43.8954 54.1046 43 53 43ZM43 41C40.7909 41 39 42.7909 39 45V51C39 53.2091 40.7909 55 43 55H53C55.2091 55 57 53.2091 57 51V45C57 42.7909 55.2091 41 53 41H43Z" fill="#FFA500"/>
<path d="M34.4 15.45C34.7555 15.1833 35.2444 15.1833 35.6 15.45L45.9333 23.2C46.4666 23.6 46.4666 24.4 45.9333 24.8L35.6 32.55C35.2444 32.8167 34.7555 32.8167 34.4 32.55L24.0666 24.8C23.5333 24.4 23.5333 23.6 24.0666 23.2L34.4 15.45Z" fill="white"/>
<path fill-rule="evenodd" clip-rule="evenodd" d="M35 17.5L26.3333 24L35 30.5L43.6666 24L35 17.5ZM35.6 15.45C35.2444 15.1833 34.7555 15.1833 34.4 15.45L24.0666 23.2C23.5333 23.6 23.5333 24.4 24.0666 24.8L34.4 32.55C34.7555 32.8167 35.2444 32.8167 35.6 32.55L45.9333 24.8C46.4666 24.4 46.4666 23.6 45.9333 23.2L35.6 15.45Z" fill="#FFA500"/>
<path opacity="0.25" fill-rule="evenodd" clip-rule="evenodd" d="M35.2793 15.2898C34.9836 15.2038 34.6569 15.2572 34.3998 15.45L24.0665 23.2C23.5332 23.6 23.5332 24.4 24.0665 24.8L34.3998 32.55C34.7554 32.8167 35.2443 32.8167 35.5998 32.55L40.7203 28.7096C40.607 28.6767 40.4983 28.6233 40.3998 28.5494L30.0664 20.7994C29.5331 20.3994 29.5331 19.5994 30.0664 19.1994L35.2793 15.2898Z" fill="#FFA500"/>
<rect x="21" y="35" width="2" height="6" fill="#FFA500"/>
<rect x="47" y="35" width="2" height="6" fill="#FFA500"/>
<rect x="21" y="35" width="28" height="2" fill="#FFA500"/>
<path d="M34 31H36V37H34V31Z" fill="#FFA500"/>
<path opacity="0.25" fill-rule="evenodd" clip-rule="evenodd" d="M43 41C40.7909 41 39 42.7909 39 45V51C39 53.2091 40.7909 55 43 55H49C46.7909 55 45 53.2091 45 51V45C45 42.7909 46.7909 41 49 41H43Z" fill="#FFA500"/>
</svg>
